# xmcd CD database file
#
# Track frame offsets:
#	150
#	50861
#	85526
#	129101
#	159173
#
# Disc length: 2731 seconds
#
# Revision: 0
# Processed by: cddbd v1.5.1PL0 Copyright (c) Steve Scherf et al.
# Submitted via: CDex 1.51
#
DISCID=2f0aa905
DTITLE=Alex Skolnick Trio - Live in Montreal [CD1]
DYEAR=2003
DGENRE=Jazz
TTITLE0=Highway Star (Deep Purple)
TTITLE1=No One Like You (Scorpions)
TTITLE2=Detroit Rock City (KISS)
TTITLE3=Fear of Flying (Skolnick)
TTITLE4=Goodbye to Romance (Ozzy Osbourne/ Randy Rhoads)
EXTD=YEAR: 2003
EXTT0=
EXTT1=
EXTT2=
EXTT3=
EXTT4=
PLAYORDER=
